<svg xmlns="http://www.w3.org/2000/svg" viewBox="0 0 100 100" width="800" height="800" fill="none">

  <path d="M50.00,27.00L50.34,27.42L50.66,27.85L50.98,28.27L51.28,28.70L51.56,29.13L51.84,29.55L52.10,29.98L52.36,30.40L52.60,30.81L52.83,31.21L53.05,31.61L53.27,32.00L53.47,32.37L53.67,32.74L53.86,33.09L54.04,33.43L54.22,33.76L54.40,34.07L54.57,34.36L54.74,34.64L54.90,34.90L55.07,35.15L55.24,35.38L55.41,35.59L55.58,35.78L55.75,35.96L55.93,36.12L56.12,36.26L56.31,36.38L56.51,36.49L56.71,36.57L56.93,36.65L57.15,36.70L57.39,36.75L57.64,36.77L57.89,36.79L58.16,36.79L58.45,36.78L58.74,36.75L59.05,36.72L59.38,36.68L59.71,36.63L60.07,36.57L60.43,36.51L60.81,36.44L61.21,36.37L61.62,36.30L62.04,36.22L62.47,36.15L62.92,36.07L63.38,36.00L63.86,35.93L64.34,35.87L64.84,35.81L65.34,35.76L65.86,35.72L66.38,35.69L66.91,35.67L67.44,35.66L67.98,35.66" stroke="#ffffff" stroke-width="10.5" fill="none" stroke-linecap="round" stroke-linejoin="round"/>
  <path d="M50.00,27.00L50.34,27.42L50.66,27.85L50.98,28.27L51.28,28.70L51.56,29.13L51.84,29.55L52.10,29.98L52.36,30.40L52.60,30.81L52.83,31.21L53.05,31.61L53.27,32.00L53.47,32.37L53.67,32.74L53.86,33.09L54.04,33.43L54.22,33.76L54.40,34.07L54.57,34.36L54.74,34.64L54.90,34.90L55.07,35.15L55.24,35.38L55.41,35.59L55.58,35.78L55.75,35.96L55.93,36.12L56.12,36.26L56.31,36.38L56.51,36.49L56.71,36.57L56.93,36.65L57.15,36.70L57.39,36.75L57.64,36.77L57.89,36.79L58.16,36.79L58.45,36.78L58.74,36.75L59.05,36.72L59.38,36.68L59.71,36.63L60.07,36.57L60.43,36.51L60.81,36.44L61.21,36.37L61.62,36.30L62.04,36.22L62.47,36.15L62.92,36.07L63.38,36.00L63.86,35.93L64.34,35.87L64.84,35.81L65.34,35.76L65.86,35.72L66.38,35.69L66.91,35.67L67.44,35.66L67.98,35.66" stroke="#3fa8a4" stroke-width="2.5" fill="none" stroke-linecap="round" stroke-linejoin="round"/>
  <path d="M67.98,35.66L67.86,36.19L67.73,36.71L67.59,37.22L67.45,37.72L67.29,38.21L67.13,38.69L66.97,39.16L66.80,39.62L66.63,40.07L66.45,40.50L66.28,40.92L66.11,41.33L65.95,41.72L65.78,42.11L65.63,42.48L65.47,42.83L65.33,43.17L65.20,43.50L65.07,43.82L64.96,44.13L64.86,44.42L64.77,44.71L64.70,44.98L64.64,45.24L64.59,45.50L64.57,45.74L64.55,45.98L64.56,46.22L64.58,46.44L64.62,46.66L64.68,46.88L64.76,47.09L64.86,47.30L64.97,47.51L65.10,47.72L65.25,47.93L65.42,48.15L65.61,48.36L65.81,48.58L66.03,48.80L66.26,49.03L66.51,49.26L66.78,49.50L67.05,49.74L67.34,50.00L67.64,50.26L67.96,50.54L68.28,50.82L68.61,51.11L68.95,51.42L69.29,51.74L69.64,52.06L69.99,52.40L70.34,52.76L70.70,53.12L71.05,53.50L71.40,53.88L71.75,54.28L72.09,54.69L72.42,55.12" stroke="#ffffff" stroke-width="10.5" fill="none" stroke-linecap="round" stroke-linejoin="round"/>
  <path d="M67.98,35.66L67.86,36.19L67.73,36.71L67.59,37.22L67.45,37.72L67.29,38.21L67.13,38.69L66.97,39.16L66.80,39.62L66.63,40.07L66.45,40.50L66.28,40.92L66.11,41.33L65.95,41.72L65.78,42.11L65.63,42.48L65.47,42.83L65.33,43.17L65.20,43.50L65.07,43.82L64.96,44.13L64.86,44.42L64.77,44.71L64.70,44.98L64.64,45.24L64.59,45.50L64.57,45.74L64.55,45.98L64.56,46.22L64.58,46.44L64.62,46.66L64.68,46.88L64.76,47.09L64.86,47.30L64.97,47.51L65.10,47.72L65.25,47.93L65.42,48.15L65.61,48.36L65.81,48.58L66.03,48.80L66.26,49.03L66.51,49.26L66.78,49.50L67.05,49.74L67.34,50.00L67.64,50.26L67.96,50.54L68.28,50.82L68.61,51.11L68.95,51.42L69.29,51.74L69.64,52.06L69.99,52.40L70.34,52.76L70.70,53.12L71.05,53.50L71.40,53.88L71.75,54.28L72.09,54.69L72.42,55.12" stroke="#3fa8a4" stroke-width="2.5" fill="none" stroke-linecap="round" stroke-linejoin="round"/>
  <path d="M72.42,55.12L71.94,55.35L71.45,55.58L70.96,55.79L70.48,55.98L70.00,56.17L69.52,56.34L69.05,56.51L68.59,56.66L68.13,56.81L67.69,56.94L67.25,57.07L66.83,57.19L66.41,57.31L66.01,57.42L65.63,57.52L65.25,57.63L64.90,57.73L64.55,57.83L64.23,57.93L63.92,58.04L63.63,58.14L63.35,58.25L63.09,58.36L62.85,58.48L62.62,58.60L62.41,58.73L62.21,58.87L62.04,59.02L61.87,59.18L61.73,59.35L61.59,59.53L61.48,59.73L61.37,59.93L61.28,60.15L61.20,60.39L61.12,60.64L61.06,60.90L61.01,61.18L60.97,61.47L60.93,61.78L60.90,62.11L60.87,62.45L60.85,62.80L60.83,63.17L60.81,63.56L60.80,63.96L60.78,64.37L60.76,64.80L60.73,65.24L60.70,65.70L60.67,66.16L60.63,66.64L60.58,67.13L60.53,67.62L60.46,68.13L60.39,68.64L60.31,69.15L60.21,69.67L60.10,70.20L59.98,70.72" stroke="#ffffff" stroke-width="10.5" fill="none" stroke-linecap="round" stroke-linejoin="round"/>
  <path d="M72.42,55.12L71.94,55.35L71.45,55.58L70.96,55.79L70.48,55.98L70.00,56.17L69.52,56.34L69.05,56.51L68.59,56.66L68.13,56.81L67.69,56.94L67.25,57.07L66.83,57.19L66.41,57.31L66.01,57.42L65.63,57.52L65.25,57.63L64.90,57.73L64.55,57.83L64.23,57.93L63.92,58.04L63.63,58.14L63.35,58.25L63.09,58.36L62.85,58.48L62.62,58.60L62.41,58.73L62.21,58.87L62.04,59.02L61.87,59.18L61.73,59.35L61.59,59.53L61.48,59.73L61.37,59.93L61.28,60.15L61.20,60.39L61.12,60.64L61.06,60.90L61.01,61.18L60.97,61.47L60.93,61.78L60.90,62.11L60.87,62.45L60.85,62.80L60.83,63.17L60.81,63.56L60.80,63.96L60.78,64.37L60.76,64.80L60.73,65.24L60.70,65.70L60.67,66.16L60.63,66.64L60.58,67.13L60.53,67.62L60.46,68.13L60.39,68.64L60.31,69.15L60.21,69.67L60.10,70.20L59.98,70.72" stroke="#3fa8a4" stroke-width="2.5" fill="none" stroke-linecap="round" stroke-linejoin="round"/>
  <path d="M59.98,70.72L59.49,70.49L59.01,70.25L58.55,70.00L58.09,69.74L57.65,69.48L57.21,69.22L56.79,68.95L56.38,68.69L55.99,68.42L55.60,68.16L55.23,67.89L54.87,67.64L54.52,67.39L54.18,67.14L53.86,66.91L53.55,66.68L53.24,66.47L52.95,66.26L52.67,66.07L52.40,65.89L52.13,65.73L51.87,65.58L51.62,65.45L51.38,65.33L51.14,65.23L50.91,65.15L50.68,65.08L50.45,65.04L50.22,65.01L50.00,65.00L49.78,65.01L49.55,65.04L49.32,65.08L49.09,65.15L48.86,65.23L48.62,65.33L48.38,65.45L48.13,65.58L47.87,65.73L47.60,65.89L47.33,66.07L47.05,66.26L46.76,66.47L46.45,66.68L46.14,66.91L45.82,67.14L45.48,67.39L45.13,67.64L44.77,67.89L44.40,68.16L44.01,68.42L43.62,68.69L43.21,68.95L42.79,69.22L42.35,69.48L41.91,69.74L41.45,70.00L40.99,70.25L40.51,70.49L40.02,70.72" stroke="#ffffff" stroke-width="10.5" fill="none" stroke-linecap="round" stroke-linejoin="round"/>
  <path d="M59.98,70.72L59.49,70.49L59.01,70.25L58.55,70.00L58.09,69.74L57.65,69.48L57.21,69.22L56.79,68.95L56.38,68.69L55.99,68.42L55.60,68.16L55.23,67.89L54.87,67.64L54.52,67.39L54.18,67.14L53.86,66.91L53.55,66.68L53.24,66.47L52.95,66.26L52.67,66.07L52.40,65.89L52.13,65.73L51.87,65.58L51.62,65.45L51.38,65.33L51.14,65.23L50.91,65.15L50.68,65.08L50.45,65.04L50.22,65.01L50.00,65.00L49.78,65.01L49.55,65.04L49.32,65.08L49.09,65.15L48.86,65.23L48.62,65.33L48.38,65.45L48.13,65.58L47.87,65.73L47.60,65.89L47.33,66.07L47.05,66.26L46.76,66.47L46.45,66.68L46.14,66.91L45.82,67.14L45.48,67.39L45.13,67.64L44.77,67.89L44.40,68.16L44.01,68.42L43.62,68.69L43.21,68.95L42.79,69.22L42.35,69.48L41.91,69.74L41.45,70.00L40.99,70.25L40.51,70.49L40.02,70.72" stroke="#3fa8a4" stroke-width="2.5" fill="none" stroke-linecap="round" stroke-linejoin="round"/>
  <path d="M40.02,70.72L39.90,70.20L39.79,69.67L39.69,69.15L39.61,68.64L39.54,68.13L39.47,67.62L39.42,67.13L39.37,66.64L39.33,66.16L39.30,65.70L39.27,65.24L39.24,64.80L39.22,64.37L39.20,63.96L39.19,63.56L39.17,63.17L39.15,62.80L39.13,62.45L39.10,62.11L39.07,61.78L39.03,61.47L38.99,61.18L38.94,60.90L38.88,60.64L38.80,60.39L38.72,60.15L38.63,59.93L38.52,59.73L38.41,59.53L38.27,59.35L38.13,59.18L37.96,59.02L37.79,58.87L37.59,58.73L37.38,58.60L37.15,58.48L36.91,58.36L36.65,58.25L36.37,58.14L36.08,58.04L35.77,57.93L35.45,57.83L35.10,57.73L34.75,57.63L34.37,57.52L33.99,57.42L33.59,57.31L33.17,57.19L32.75,57.07L32.31,56.94L31.87,56.81L31.41,56.66L30.95,56.51L30.48,56.34L30.00,56.17L29.52,55.98L29.04,55.79L28.55,55.58L28.06,55.35L27.58,55.12" stroke="#ffffff" stroke-width="10.5" fill="none" stroke-linecap="round" stroke-linejoin="round"/>
  <path d="M40.02,70.72L39.90,70.20L39.79,69.67L39.69,69.15L39.61,68.64L39.54,68.13L39.47,67.62L39.42,67.13L39.37,66.64L39.33,66.16L39.30,65.70L39.27,65.24L39.24,64.80L39.22,64.37L39.20,63.96L39.19,63.56L39.17,63.17L39.15,62.80L39.13,62.45L39.10,62.11L39.07,61.78L39.03,61.47L38.99,61.18L38.94,60.90L38.88,60.64L38.80,60.39L38.72,60.15L38.63,59.93L38.52,59.73L38.41,59.53L38.27,59.35L38.13,59.18L37.96,59.02L37.79,58.87L37.59,58.73L37.38,58.60L37.15,58.48L36.91,58.36L36.65,58.25L36.37,58.14L36.08,58.04L35.77,57.93L35.45,57.83L35.10,57.73L34.75,57.63L34.37,57.52L33.99,57.42L33.59,57.31L33.17,57.19L32.75,57.07L32.31,56.94L31.87,56.81L31.41,56.66L30.95,56.51L30.48,56.34L30.00,56.17L29.52,55.98L29.04,55.79L28.55,55.58L28.06,55.35L27.58,55.12" stroke="#3fa8a4" stroke-width="2.5" fill="none" stroke-linecap="round" stroke-linejoin="round"/>
  <path d="M27.58,55.12L27.91,54.69L28.25,54.28L28.60,53.88L28.95,53.50L29.30,53.12L29.66,52.76L30.01,52.40L30.36,52.06L30.71,51.74L31.05,51.42L31.39,51.11L31.72,50.82L32.04,50.54L32.36,50.26L32.66,50.00L32.95,49.74L33.22,49.50L33.49,49.26L33.74,49.03L33.97,48.80L34.19,48.58L34.39,48.36L34.58,48.15L34.75,47.93L34.90,47.72L35.03,47.51L35.14,47.30L35.24,47.09L35.32,46.88L35.38,46.66L35.42,46.44L35.44,46.22L35.45,45.98L35.43,45.74L35.41,45.50L35.36,45.24L35.30,44.98L35.23,44.71L35.14,44.42L35.04,44.13L34.93,43.82L34.80,43.50L34.67,43.17L34.53,42.83L34.37,42.48L34.22,42.11L34.05,41.72L33.89,41.33L33.72,40.92L33.55,40.50L33.37,40.07L33.20,39.62L33.03,39.16L32.87,38.69L32.71,38.21L32.55,37.72L32.41,37.22L32.27,36.71L32.14,36.19L32.02,35.66" stroke="#ffffff" stroke-width="10.5" fill="none" stroke-linecap="round" stroke-linejoin="round"/>
  <path d="M27.58,55.12L27.91,54.69L28.25,54.28L28.60,53.88L28.95,53.50L29.30,53.12L29.66,52.76L30.01,52.40L30.36,52.06L30.71,51.74L31.05,51.42L31.39,51.11L31.72,50.82L32.04,50.54L32.36,50.26L32.66,50.00L32.95,49.74L33.22,49.50L33.49,49.26L33.74,49.03L33.97,48.80L34.19,48.58L34.39,48.36L34.58,48.15L34.75,47.93L34.90,47.72L35.03,47.51L35.14,47.30L35.24,47.09L35.32,46.88L35.38,46.66L35.42,46.44L35.44,46.22L35.45,45.98L35.43,45.74L35.41,45.50L35.36,45.24L35.30,44.98L35.23,44.71L35.14,44.42L35.04,44.13L34.93,43.82L34.80,43.50L34.67,43.17L34.53,42.83L34.37,42.48L34.22,42.11L34.05,41.72L33.89,41.33L33.72,40.92L33.55,40.50L33.37,40.07L33.20,39.62L33.03,39.16L32.87,38.69L32.71,38.21L32.55,37.72L32.41,37.22L32.27,36.71L32.14,36.19L32.02,35.66" stroke="#3fa8a4" stroke-width="2.5" fill="none" stroke-linecap="round" stroke-linejoin="round"/>
  <path d="M32.02,35.66L32.56,35.66L33.09,35.67L33.62,35.69L34.14,35.72L34.66,35.76L35.16,35.81L35.66,35.87L36.14,35.93L36.62,36.00L37.08,36.07L37.53,36.15L37.96,36.22L38.38,36.30L38.79,36.37L39.19,36.44L39.57,36.51L39.93,36.57L40.29,36.63L40.62,36.68L40.95,36.72L41.26,36.75L41.55,36.78L41.84,36.79L42.11,36.79L42.36,36.77L42.61,36.75L42.85,36.70L43.07,36.65L43.29,36.57L43.49,36.49L43.69,36.38L43.88,36.26L44.07,36.12L44.25,35.96L44.42,35.78L44.59,35.59L44.76,35.38L44.93,35.15L45.10,34.90L45.26,34.64L45.43,34.36L45.60,34.07L45.78,33.76L45.96,33.43L46.14,33.09L46.33,32.74L46.53,32.37L46.73,32.00L46.95,31.61L47.17,31.21L47.40,30.81L47.64,30.40L47.90,29.98L48.16,29.55L48.44,29.13L48.72,28.70L49.02,28.27L49.34,27.85L49.66,27.42L50.00,27.00" stroke="#ffffff" stroke-width="10.5" fill="none" stroke-linecap="round" stroke-linejoin="round"/>
  <path d="M32.02,35.66L32.56,35.66L33.09,35.67L33.62,35.69L34.14,35.72L34.66,35.76L35.16,35.81L35.66,35.87L36.14,35.93L36.62,36.00L37.08,36.07L37.53,36.15L37.96,36.22L38.38,36.30L38.79,36.37L39.19,36.44L39.57,36.51L39.93,36.57L40.29,36.63L40.62,36.68L40.95,36.72L41.26,36.75L41.55,36.78L41.84,36.79L42.11,36.79L42.36,36.77L42.61,36.75L42.85,36.70L43.07,36.65L43.29,36.57L43.49,36.49L43.69,36.38L43.88,36.26L44.07,36.12L44.25,35.96L44.42,35.78L44.59,35.59L44.76,35.38L44.93,35.15L45.10,34.90L45.26,34.64L45.43,34.36L45.60,34.07L45.78,33.76L45.96,33.43L46.14,33.09L46.33,32.74L46.53,32.37L46.73,32.00L46.95,31.61L47.17,31.21L47.40,30.81L47.64,30.40L47.90,29.98L48.16,29.55L48.44,29.13L48.72,28.70L49.02,28.27L49.34,27.85L49.66,27.42L50.00,27.00" stroke="#3fa8a4" stroke-width="2.5" fill="none" stroke-linecap="round" stroke-linejoin="round"/>
  <path d="M50.00,27.00L50.35,26.58L50.71,26.17L51.09,25.77L51.47,25.38L51.87,25.00L52.28,24.63L52.70,24.27L53.13,23.93L53.57,23.61L54.02,23.30L54.48,23.01L54.95,22.74L55.42,22.49L55.89,22.27L56.38,22.06L56.86,21.88L57.35,21.72L57.84,21.59L58.33,21.48L58.82,21.40L59.31,21.35L59.80,21.32L60.28,21.32L60.76,21.34L61.23,21.40L61.69,21.48L62.15,21.59L62.59,21.72L63.03,21.88L63.45,22.07L63.86,22.28L64.26,22.52L64.64,22.79L65.01,23.08L65.36,23.39L65.70,23.72L66.02,24.08L66.32,24.46L66.60,24.86L66.86,25.27L67.10,25.71L67.32,26.16L67.53,26.62L67.71,27.10L67.87,27.60L68.01,28.10L68.13,28.61L68.23,29.14L68.31,29.67L68.36,30.21L68.40,30.75L68.42,31.30L68.43,31.85L68.41,32.40L68.38,32.95L68.33,33.50L68.26,34.04L68.18,34.59L68.09,35.13L67.98,35.66" stroke="#ffffff" stroke-width="10.5" fill="none" stroke-linecap="round" stroke-linejoin="round"/>
  <path d="M50.00,27.00L50.35,26.58L50.71,26.17L51.09,25.77L51.47,25.38L51.87,25.00L52.28,24.63L52.70,24.27L53.13,23.93L53.57,23.61L54.02,23.30L54.48,23.01L54.95,22.74L55.42,22.49L55.89,22.27L56.38,22.06L56.86,21.88L57.35,21.72L57.84,21.59L58.33,21.48L58.82,21.40L59.31,21.35L59.80,21.32L60.28,21.32L60.76,21.34L61.23,21.40L61.69,21.48L62.15,21.59L62.59,21.72L63.03,21.88L63.45,22.07L63.86,22.28L64.26,22.52L64.64,22.79L65.01,23.08L65.36,23.39L65.70,23.72L66.02,24.08L66.32,24.46L66.60,24.86L66.86,25.27L67.10,25.71L67.32,26.16L67.53,26.62L67.71,27.10L67.87,27.60L68.01,28.10L68.13,28.61L68.23,29.14L68.31,29.67L68.36,30.21L68.40,30.75L68.42,31.30L68.43,31.85L68.41,32.40L68.38,32.95L68.33,33.50L68.26,34.04L68.18,34.59L68.09,35.13L67.98,35.66" stroke="#3fa8a4" stroke-width="2.5" fill="none" stroke-linecap="round" stroke-linejoin="round"/>
  <path d="M67.98,35.66L68.53,35.67L69.07,35.70L69.62,35.75L70.17,35.80L70.71,35.88L71.26,35.97L71.80,36.07L72.33,36.20L72.86,36.34L73.38,36.50L73.89,36.68L74.39,36.87L74.88,37.09L75.36,37.32L75.82,37.57L76.26,37.83L76.69,38.12L77.10,38.42L77.49,38.73L77.86,39.07L78.21,39.41L78.53,39.78L78.83,40.15L79.11,40.54L79.36,40.94L79.59,41.36L79.79,41.78L79.96,42.21L80.11,42.65L80.22,43.10L80.31,43.56L80.37,44.02L80.40,44.48L80.41,44.95L80.38,45.42L80.33,45.89L80.25,46.36L80.14,46.83L80.01,47.30L79.84,47.76L79.66,48.22L79.44,48.68L79.20,49.13L78.94,49.57L78.66,50.00L78.35,50.42L78.02,50.84L77.67,51.24L77.31,51.64L76.92,52.02L76.52,52.39L76.11,52.74L75.68,53.09L75.24,53.42L74.79,53.74L74.33,54.04L73.86,54.33L73.39,54.61L72.91,54.87L72.42,55.12" stroke="#ffffff" stroke-width="10.5" fill="none" stroke-linecap="round" stroke-linejoin="round"/>
  <path d="M67.98,35.66L68.53,35.67L69.07,35.70L69.62,35.75L70.17,35.80L70.71,35.88L71.26,35.97L71.80,36.07L72.33,36.20L72.86,36.34L73.38,36.50L73.89,36.68L74.39,36.87L74.88,37.09L75.36,37.32L75.82,37.57L76.26,37.83L76.69,38.12L77.10,38.42L77.49,38.73L77.86,39.07L78.21,39.41L78.53,39.78L78.83,40.15L79.11,40.54L79.36,40.94L79.59,41.36L79.79,41.78L79.96,42.21L80.11,42.65L80.22,43.10L80.31,43.56L80.37,44.02L80.40,44.48L80.41,44.95L80.38,45.42L80.33,45.89L80.25,46.36L80.14,46.83L80.01,47.30L79.84,47.76L79.66,48.22L79.44,48.68L79.20,49.13L78.94,49.57L78.66,50.00L78.35,50.42L78.02,50.84L77.67,51.24L77.31,51.64L76.92,52.02L76.52,52.39L76.11,52.74L75.68,53.09L75.24,53.42L74.79,53.74L74.33,54.04L73.86,54.33L73.39,54.61L72.91,54.87L72.42,55.12" stroke="#3fa8a4" stroke-width="2.5" fill="none" stroke-linecap="round" stroke-linejoin="round"/>
  <path d="M72.42,55.12L72.75,55.55L73.07,56.00L73.38,56.45L73.67,56.92L73.96,57.39L74.23,57.87L74.48,58.36L74.72,58.86L74.93,59.36L75.13,59.86L75.31,60.37L75.47,60.89L75.61,61.40L75.73,61.92L75.82,62.43L75.89,62.95L75.93,63.46L75.95,63.97L75.95,64.47L75.92,64.96L75.86,65.45L75.78,65.93L75.68,66.40L75.54,66.86L75.39,67.31L75.21,67.74L75.00,68.16L74.77,68.57L74.51,68.96L74.24,69.33L73.94,69.68L73.61,70.02L73.27,70.33L72.91,70.63L72.52,70.90L72.12,71.15L71.71,71.38L71.27,71.59L70.82,71.78L70.36,71.94L69.88,72.08L69.39,72.19L68.89,72.29L68.38,72.36L67.87,72.40L67.34,72.43L66.82,72.43L66.28,72.41L65.75,72.37L65.21,72.31L64.67,72.23L64.13,72.12L63.60,72.00L63.06,71.87L62.54,71.71L62.01,71.54L61.49,71.36L60.98,71.16L60.48,70.95L59.98,70.72" stroke="#ffffff" stroke-width="10.5" fill="none" stroke-linecap="round" stroke-linejoin="round"/>
  <path d="M72.42,55.12L72.75,55.55L73.07,56.00L73.38,56.45L73.67,56.92L73.96,57.39L74.23,57.87L74.48,58.36L74.72,58.86L74.93,59.36L75.13,59.86L75.31,60.37L75.47,60.89L75.61,61.40L75.73,61.92L75.82,62.43L75.89,62.95L75.93,63.46L75.95,63.97L75.95,64.47L75.92,64.96L75.86,65.45L75.78,65.93L75.68,66.40L75.54,66.86L75.39,67.31L75.21,67.74L75.00,68.16L74.77,68.57L74.51,68.96L74.24,69.33L73.94,69.68L73.61,70.02L73.27,70.33L72.91,70.63L72.52,70.90L72.12,71.15L71.71,71.38L71.27,71.59L70.82,71.78L70.36,71.94L69.88,72.08L69.39,72.19L68.89,72.29L68.38,72.36L67.87,72.40L67.34,72.43L66.82,72.43L66.28,72.41L65.75,72.37L65.21,72.31L64.67,72.23L64.13,72.12L63.60,72.00L63.06,71.87L62.54,71.71L62.01,71.54L61.49,71.36L60.98,71.16L60.48,70.95L59.98,70.72" stroke="#3fa8a4" stroke-width="2.5" fill="none" stroke-linecap="round" stroke-linejoin="round"/>
  <path d="M59.98,70.72L59.84,71.25L59.70,71.78L59.53,72.30L59.35,72.82L59.16,73.34L58.95,73.85L58.73,74.35L58.49,74.84L58.23,75.33L57.96,75.80L57.67,76.26L57.37,76.70L57.05,77.13L56.72,77.54L56.38,77.94L56.02,78.31L55.65,78.67L55.26,79.00L54.87,79.31L54.46,79.59L54.04,79.86L53.62,80.09L53.18,80.30L52.74,80.49L52.30,80.64L51.84,80.77L51.39,80.87L50.93,80.94L50.46,80.99L50.00,81.00L49.54,80.99L49.07,80.94L48.61,80.87L48.16,80.77L47.70,80.64L47.26,80.49L46.82,80.30L46.38,80.09L45.96,79.86L45.54,79.59L45.13,79.31L44.74,79.00L44.35,78.67L43.98,78.31L43.62,77.94L43.28,77.54L42.95,77.13L42.63,76.70L42.33,76.26L42.04,75.80L41.77,75.33L41.51,74.84L41.27,74.35L41.05,73.85L40.84,73.34L40.65,72.82L40.47,72.30L40.30,71.78L40.16,71.25L40.02,70.72" stroke="#ffffff" stroke-width="10.5" fill="none" stroke-linecap="round" stroke-linejoin="round"/>
  <path d="M59.98,70.72L59.84,71.25L59.70,71.78L59.53,72.30L59.35,72.82L59.16,73.34L58.95,73.85L58.73,74.35L58.49,74.84L58.23,75.33L57.96,75.80L57.67,76.26L57.37,76.70L57.05,77.13L56.72,77.54L56.38,77.94L56.02,78.31L55.65,78.67L55.26,79.00L54.87,79.31L54.46,79.59L54.04,79.86L53.62,80.09L53.18,80.30L52.74,80.49L52.30,80.64L51.84,80.77L51.39,80.87L50.93,80.94L50.46,80.99L50.00,81.00L49.54,80.99L49.07,80.94L48.61,80.87L48.16,80.77L47.70,80.64L47.26,80.49L46.82,80.30L46.38,80.09L45.96,79.86L45.54,79.59L45.13,79.31L44.74,79.00L44.35,78.67L43.98,78.31L43.62,77.94L43.28,77.54L42.95,77.13L42.63,76.70L42.33,76.26L42.04,75.80L41.77,75.33L41.51,74.84L41.27,74.35L41.05,73.85L40.84,73.34L40.65,72.82L40.47,72.30L40.30,71.78L40.16,71.25L40.02,70.72" stroke="#3fa8a4" stroke-width="2.5" fill="none" stroke-linecap="round" stroke-linejoin="round"/>
  <path d="M40.02,70.72L39.52,70.95L39.02,71.16L38.51,71.36L37.99,71.54L37.46,71.71L36.94,71.87L36.40,72.00L35.87,72.12L35.33,72.23L34.79,72.31L34.25,72.37L33.72,72.41L33.18,72.43L32.66,72.43L32.13,72.40L31.62,72.36L31.11,72.29L30.61,72.19L30.12,72.08L29.64,71.94L29.18,71.78L28.73,71.59L28.29,71.38L27.88,71.15L27.48,70.90L27.09,70.63L26.73,70.33L26.39,70.02L26.06,69.68L25.76,69.33L25.49,68.96L25.23,68.57L25.00,68.16L24.79,67.74L24.61,67.31L24.46,66.86L24.32,66.40L24.22,65.93L24.14,65.45L24.08,64.96L24.05,64.47L24.05,63.97L24.07,63.46L24.11,62.95L24.18,62.43L24.27,61.92L24.39,61.40L24.53,60.89L24.69,60.37L24.87,59.86L25.07,59.36L25.28,58.86L25.52,58.36L25.77,57.87L26.04,57.39L26.33,56.92L26.62,56.45L26.93,56.00L27.25,55.55L27.58,55.12" stroke="#ffffff" stroke-width="10.5" fill="none" stroke-linecap="round" stroke-linejoin="round"/>
  <path d="M40.02,70.72L39.52,70.95L39.02,71.16L38.51,71.36L37.99,71.54L37.46,71.71L36.94,71.87L36.40,72.00L35.87,72.12L35.33,72.23L34.79,72.31L34.25,72.37L33.72,72.41L33.18,72.43L32.66,72.43L32.13,72.40L31.62,72.36L31.11,72.29L30.61,72.19L30.12,72.08L29.64,71.94L29.18,71.78L28.73,71.59L28.29,71.38L27.88,71.15L27.48,70.90L27.09,70.63L26.73,70.33L26.39,70.02L26.06,69.68L25.76,69.33L25.49,68.96L25.23,68.57L25.00,68.16L24.79,67.74L24.61,67.31L24.46,66.86L24.32,66.40L24.22,65.93L24.14,65.45L24.08,64.96L24.05,64.47L24.05,63.97L24.07,63.46L24.11,62.95L24.18,62.43L24.27,61.92L24.39,61.40L24.53,60.89L24.69,60.37L24.87,59.86L25.07,59.36L25.28,58.86L25.52,58.36L25.77,57.87L26.04,57.39L26.33,56.92L26.62,56.45L26.93,56.00L27.25,55.55L27.58,55.12" stroke="#3fa8a4" stroke-width="2.5" fill="none" stroke-linecap="round" stroke-linejoin="round"/>
  <path d="M27.58,55.12L27.09,54.87L26.61,54.61L26.14,54.33L25.67,54.04L25.21,53.74L24.76,53.42L24.32,53.09L23.89,52.74L23.48,52.39L23.08,52.02L22.69,51.64L22.33,51.24L21.98,50.84L21.65,50.42L21.34,50.00L21.06,49.57L20.80,49.13L20.56,48.68L20.34,48.22L20.16,47.76L19.99,47.30L19.86,46.83L19.75,46.36L19.67,45.89L19.62,45.42L19.59,44.95L19.60,44.48L19.63,44.02L19.69,43.56L19.78,43.10L19.89,42.65L20.04,42.21L20.21,41.78L20.41,41.36L20.64,40.94L20.89,40.54L21.17,40.15L21.47,39.78L21.79,39.41L22.14,39.07L22.51,38.73L22.90,38.42L23.31,38.12L23.74,37.83L24.18,37.57L24.64,37.32L25.12,37.09L25.61,36.87L26.11,36.68L26.62,36.50L27.14,36.34L27.67,36.20L28.20,36.07L28.74,35.97L29.29,35.88L29.83,35.80L30.38,35.75L30.93,35.70L31.47,35.67L32.02,35.66" stroke="#ffffff" stroke-width="10.5" fill="none" stroke-linecap="round" stroke-linejoin="round"/>
  <path d="M27.58,55.12L27.09,54.87L26.61,54.61L26.14,54.33L25.67,54.04L25.21,53.74L24.76,53.42L24.32,53.09L23.89,52.74L23.48,52.39L23.08,52.02L22.69,51.64L22.33,51.24L21.98,50.84L21.65,50.42L21.34,50.00L21.06,49.57L20.80,49.13L20.56,48.68L20.34,48.22L20.16,47.76L19.99,47.30L19.86,46.83L19.75,46.36L19.67,45.89L19.62,45.42L19.59,44.95L19.60,44.48L19.63,44.02L19.69,43.56L19.78,43.10L19.89,42.65L20.04,42.21L20.21,41.78L20.41,41.36L20.64,40.94L20.89,40.54L21.17,40.15L21.47,39.78L21.79,39.41L22.14,39.07L22.51,38.73L22.90,38.42L23.31,38.12L23.74,37.83L24.18,37.57L24.64,37.32L25.12,37.09L25.61,36.87L26.11,36.68L26.62,36.50L27.14,36.34L27.67,36.20L28.20,36.07L28.74,35.97L29.29,35.88L29.83,35.80L30.38,35.75L30.93,35.70L31.47,35.67L32.02,35.66" stroke="#3fa8a4" stroke-width="2.5" fill="none" stroke-linecap="round" stroke-linejoin="round"/>
  <path d="M32.02,35.66L31.91,35.13L31.82,34.59L31.74,34.04L31.67,33.50L31.62,32.95L31.59,32.40L31.57,31.85L31.58,31.30L31.60,30.75L31.64,30.21L31.69,29.67L31.77,29.14L31.87,28.61L31.99,28.10L32.13,27.60L32.29,27.10L32.47,26.62L32.68,26.16L32.90,25.71L33.14,25.27L33.40,24.86L33.68,24.46L33.98,24.08L34.30,23.72L34.64,23.39L34.99,23.08L35.36,22.79L35.74,22.52L36.14,22.28L36.55,22.07L36.97,21.88L37.41,21.72L37.85,21.59L38.31,21.48L38.77,21.40L39.24,21.34L39.72,21.32L40.20,21.32L40.69,21.35L41.18,21.40L41.67,21.48L42.16,21.59L42.65,21.72L43.14,21.88L43.62,22.06L44.11,22.27L44.58,22.49L45.05,22.74L45.52,23.01L45.98,23.30L46.43,23.61L46.87,23.93L47.30,24.27L47.72,24.63L48.13,25.00L48.53,25.38L48.91,25.77L49.29,26.17L49.65,26.58L50.00,27.00" stroke="#ffffff" stroke-width="10.5" fill="none" stroke-linecap="round" stroke-linejoin="round"/>
  <path d="M32.02,35.66L31.91,35.13L31.82,34.59L31.74,34.04L31.67,33.50L31.62,32.95L31.59,32.40L31.57,31.85L31.58,31.30L31.60,30.75L31.64,30.21L31.69,29.67L31.77,29.14L31.87,28.61L31.99,28.10L32.13,27.60L32.29,27.10L32.47,26.62L32.68,26.16L32.90,25.71L33.14,25.27L33.40,24.86L33.68,24.46L33.98,24.08L34.30,23.72L34.64,23.39L34.99,23.08L35.36,22.79L35.74,22.52L36.14,22.28L36.55,22.07L36.97,21.88L37.41,21.72L37.85,21.59L38.31,21.48L38.77,21.40L39.24,21.34L39.72,21.32L40.20,21.32L40.69,21.35L41.18,21.40L41.67,21.48L42.16,21.59L42.65,21.72L43.14,21.88L43.62,22.06L44.11,22.27L44.58,22.49L45.05,22.74L45.52,23.01L45.98,23.30L46.43,23.61L46.87,23.93L47.30,24.27L47.72,24.63L48.13,25.00L48.53,25.38L48.91,25.77L49.29,26.17L49.65,26.58L50.00,27.00" stroke="#3fa8a4" stroke-width="2.5" fill="none" stroke-linecap="round" stroke-linejoin="round"/>
</svg>