<svg xmlns="http://www.w3.org/2000/svg" viewBox="17 19 66 64" width="800" height="775" fill="none">
  <defs>
    <mask id="m1" maskUnits="userSpaceOnUse" x="0" y="0" width="100" height="100">
      <rect width="100" height="100" fill="white"/>
      <path d="M66.38,35.69L66.96,35.67L67.55,35.66L68.14,35.66L68.74,35.68L69.35,35.72L69.95,35.78L70.55,35.85L71.15,35.95L71.74,36.06L72.33,36.20L72.91,36.36L73.49,36.53L74.05,36.73L74.59,36.96L75.12,37.20L75.64,37.46L76.13,37.75L76.61,38.06L77.06,38.39L77.49,38.73L77.90,39.10L78.27,39.49L78.62,39.89L78.95,40.31L79.24,40.74L79.50,41.19L79.73,41.65L79.93,42.12L80.09,42.61L80.22,43.10L80.32,43.60L80.38,44.11L80.41,44.62L80.40,45.14L80.36,45.66L80.29,46.17L80.18,46.69L80.04,47.21L79.86,47.72L79.66,48.22L79.42,48.72L79.15,49.21L78.86,49.70L78.54,50.17L78.19,50.63L77.82,51.08L77.42,51.52L77.00,51.94L76.57,52.35L76.11,52.74L75.64,53.12L75.15,53.48L74.65,53.83L74.14,54.16L73.63,54.47L73.10,54.77L72.57,55.04L72.03,55.31L71.50,55.55L70.96,55.79" stroke="black" stroke-width="5" fill="none" stroke-linecap="round" stroke-linejoin="round"/>
      <path d="M60.31,69.15L60.20,69.72L60.08,70.30L59.94,70.88L59.79,71.46L59.62,72.04L59.43,72.61L59.22,73.18L58.99,73.75L58.75,74.30L58.49,74.84L58.20,75.38L57.90,75.89L57.58,76.39L57.24,76.88L56.89,77.34L56.52,77.78L56.13,78.20L55.72,78.60L55.30,78.97L54.87,79.31L54.42,79.62L53.96,79.90L53.49,80.16L53.01,80.38L52.52,80.57L52.03,80.72L51.52,80.84L51.02,80.93L50.51,80.98L50.00,81.00L49.49,80.98L48.98,80.93L48.48,80.84L47.97,80.72L47.48,80.57L46.99,80.38L46.51,80.16L46.04,79.90L45.58,79.62L45.13,79.31L44.70,78.97L44.28,78.60L43.87,78.20L43.48,77.78L43.11,77.34L42.76,76.88L42.42,76.39L42.10,75.89L41.80,75.38L41.51,74.84L41.25,74.30L41.01,73.75L40.78,73.18L40.57,72.61L40.38,72.04L40.21,71.46L40.06,70.88L39.92,70.30L39.80,69.72L39.69,69.15" stroke="black" stroke-width="5" fill="none" stroke-linecap="round" stroke-linejoin="round"/>
      <path d="M29.04,55.79L28.50,55.55L27.97,55.31L27.43,55.04L26.90,54.77L26.37,54.47L25.86,54.16L25.35,53.83L24.85,53.48L24.36,53.12L23.89,52.74L23.43,52.35L23.00,51.94L22.58,51.52L22.18,51.08L21.81,50.63L21.46,50.17L21.14,49.70L20.85,49.21L20.58,48.72L20.34,48.22L20.14,47.72L19.96,47.21L19.82,46.69L19.71,46.17L19.64,45.66L19.60,45.14L19.59,44.62L19.62,44.11L19.68,43.60L19.78,43.10L19.91,42.61L20.07,42.12L20.27,41.65L20.50,41.19L20.76,40.74L21.05,40.31L21.38,39.89L21.73,39.49L22.10,39.10L22.51,38.73L22.94,38.39L23.39,38.06L23.87,37.75L24.36,37.46L24.88,37.20L25.41,36.96L25.95,36.73L26.51,36.53L27.09,36.36L27.67,36.20L28.26,36.06L28.85,35.95L29.45,35.85L30.05,35.78L30.65,35.72L31.26,35.68L31.86,35.66L32.45,35.66L33.04,35.67L33.62,35.69" stroke="black" stroke-width="5" fill="none" stroke-linecap="round" stroke-linejoin="round"/>
    </mask>
    <mask id="m2" maskUnits="userSpaceOnUse" x="0" y="0" width="100" height="100">
      <rect width="100" height="100" fill="white"/>
      <path d="M49.02,28.27L49.37,27.80L49.73,27.34L50.10,26.87L50.49,26.42L50.90,25.97L51.32,25.54L51.75,25.11L52.20,24.70L52.66,24.31L53.13,23.93L53.62,23.58L54.11,23.24L54.62,22.93L55.13,22.64L55.66,22.38L56.18,22.14L56.72,21.93L57.25,21.75L57.79,21.60L58.33,21.48L58.87,21.39L59.41,21.34L59.94,21.32L60.47,21.32L60.99,21.37L61.51,21.44L62.01,21.55L62.50,21.69L62.98,21.86L63.45,22.07L63.90,22.31L64.34,22.57L64.76,22.87L65.15,23.20L65.53,23.55L65.89,23.94L66.23,24.34L66.54,24.77L66.83,25.23L67.10,25.71L67.34,26.20L67.56,26.72L67.76,27.25L67.93,27.80L68.07,28.36L68.19,28.93L68.28,29.51L68.35,30.10L68.40,30.70L68.42,31.30L68.43,31.90L68.41,32.51L68.36,33.11L68.30,33.72L68.22,34.32L68.13,34.91L68.02,35.50L67.89,36.08L67.75,36.65L67.59,37.22" stroke="black" stroke-width="5" fill="none" stroke-linecap="round" stroke-linejoin="round"/>
      <path d="M71.40,53.88L71.78,54.32L72.16,54.78L72.52,55.25L72.88,55.73L73.22,56.22L73.56,56.73L73.87,57.25L74.17,57.77L74.45,58.31L74.72,58.86L74.95,59.41L75.17,59.97L75.36,60.53L75.53,61.09L75.67,61.66L75.78,62.23L75.87,62.79L75.93,63.36L75.95,63.92L75.95,64.47L75.91,65.01L75.85,65.55L75.75,66.07L75.63,66.59L75.47,67.09L75.28,67.57L75.06,68.04L74.82,68.49L74.54,68.92L74.24,69.33L73.91,69.72L73.55,70.08L73.16,70.42L72.76,70.74L72.33,71.03L71.87,71.29L71.40,71.53L70.91,71.74L70.40,71.92L69.88,72.08L69.34,72.20L68.79,72.30L68.23,72.37L67.66,72.42L67.08,72.43L66.50,72.42L65.91,72.39L65.32,72.32L64.73,72.24L64.13,72.12L63.54,71.99L62.96,71.84L62.38,71.66L61.80,71.47L61.24,71.26L60.68,71.03L60.13,70.79L59.59,70.54L59.06,70.27L58.55,70.00" stroke="black" stroke-width="5" fill="none" stroke-linecap="round" stroke-linejoin="round"/>
      <path d="M41.45,70.00L40.94,70.27L40.41,70.54L39.87,70.79L39.32,71.03L38.76,71.26L38.20,71.47L37.62,71.66L37.04,71.84L36.46,71.99L35.87,72.12L35.27,72.24L34.68,72.32L34.09,72.39L33.50,72.42L32.92,72.43L32.34,72.42L31.77,72.37L31.21,72.30L30.66,72.20L30.12,72.08L29.60,71.92L29.09,71.74L28.60,71.53L28.13,71.29L27.67,71.03L27.24,70.74L26.84,70.42L26.45,70.08L26.09,69.72L25.76,69.33L25.46,68.92L25.18,68.49L24.94,68.04L24.72,67.57L24.53,67.09L24.37,66.59L24.25,66.07L24.15,65.55L24.09,65.01L24.05,64.47L24.05,63.92L24.07,63.36L24.13,62.79L24.22,62.23L24.33,61.66L24.47,61.09L24.64,60.53L24.83,59.97L25.05,59.41L25.28,58.86L25.55,58.31L25.83,57.77L26.13,57.25L26.44,56.73L26.78,56.22L27.12,55.73L27.48,55.25L27.84,54.78L28.22,54.32L28.60,53.88" stroke="black" stroke-width="5" fill="none" stroke-linecap="round" stroke-linejoin="round"/>
      <path d="M32.41,37.22L32.25,36.65L32.11,36.08L31.98,35.50L31.87,34.91L31.78,34.32L31.70,33.72L31.64,33.11L31.59,32.51L31.57,31.90L31.58,31.30L31.60,30.70L31.65,30.10L31.72,29.51L31.81,28.93L31.93,28.36L32.07,27.80L32.24,27.25L32.44,26.72L32.66,26.20L32.90,25.71L33.17,25.23L33.46,24.77L33.77,24.34L34.11,23.94L34.47,23.55L34.85,23.20L35.24,22.87L35.66,22.57L36.10,22.31L36.55,22.07L37.02,21.86L37.50,21.69L37.99,21.55L38.49,21.44L39.01,21.37L39.53,21.32L40.06,21.32L40.59,21.34L41.13,21.39L41.67,21.48L42.21,21.60L42.75,21.75L43.28,21.93L43.82,22.14L44.34,22.38L44.87,22.64L45.38,22.93L45.89,23.24L46.38,23.58L46.87,23.93L47.34,24.31L47.80,24.70L48.25,25.11L48.68,25.54L49.10,25.97L49.51,26.42L49.90,26.87L50.27,27.34L50.63,27.80L50.98,28.27" stroke="black" stroke-width="5" fill="none" stroke-linecap="round" stroke-linejoin="round"/>
    </mask>
  </defs>
  <path d="M50.00,27.00L50.37,26.56L50.75,26.13L51.15,25.71L51.55,25.30L51.97,24.91L52.41,24.52L52.85,24.15L53.31,23.80L53.78,23.47L54.25,23.15L54.74,22.86L55.23,22.59L55.73,22.34L56.23,22.12L56.74,21.92L57.25,21.75L57.77,21.61L58.28,21.49L58.80,21.40L59.31,21.35L59.82,21.32L60.33,21.32L60.83,21.35L61.32,21.41L61.80,21.50L62.28,21.62L62.74,21.77L63.20,21.95L63.64,22.16L64.06,22.40L64.47,22.67L64.87,22.96L65.24,23.28L65.60,23.62L65.94,23.99L66.26,24.38L66.56,24.80L66.83,25.23L67.09,25.68L67.32,26.16L67.53,26.65L67.72,27.15L67.89,27.67L68.03,28.20L68.15,28.74L68.25,29.30L68.33,29.86L68.38,30.42L68.42,31.00L68.43,31.57L68.42,32.15L68.39,32.73L68.35,33.30L68.28,33.88L68.20,34.45L68.11,35.02L68.00,35.58L67.88,36.13L67.74,36.68L67.59,37.22L67.44,37.74L67.28,38.26L67.11,38.76L66.93,39.25L66.75,39.73L66.57,40.20L66.39,40.65L66.21,41.09L66.04,41.51L65.86,41.92L65.70,42.31L65.53,42.69L65.38,43.06L65.24,43.41L65.10,43.74L64.98,44.07L64.87,44.38L64.78,44.68L64.70,44.97L64.64,45.24L64.59,45.51L64.56,45.77L64.55,46.02L64.56,46.26L64.59,46.50L64.64,46.73L64.71,46.95L64.80,47.18L64.90,47.40L65.03,47.62L65.18,47.84L65.35,48.06L65.54,48.28L65.75,48.51L65.97,48.74L66.21,48.98L66.47,49.22L66.75,49.47L67.04,49.73L67.34,50.00L67.66,50.28L67.99,50.57L68.33,50.86L68.68,51.18L69.03,51.50L69.39,51.83L69.76,52.18L70.13,52.54L70.50,52.92L70.87,53.31L71.24,53.71L71.61,54.12L71.97,54.55L72.32,54.99L72.67,55.44L73.01,55.91L73.33,56.38L73.64,56.87L73.94,57.37L74.23,57.87L74.49,58.39L74.74,58.91L74.96,59.43L75.17,59.97L75.36,60.50L75.52,61.04L75.65,61.58L75.77,62.12L75.85,62.67L75.91,63.20L75.95,63.74L75.95,64.27L75.93,64.79L75.88,65.31L75.81,65.81L75.70,66.31L75.57,66.79L75.40,67.27L75.22,67.72L75.00,68.16L74.76,68.59L74.49,68.99L74.19,69.38L73.87,69.75L73.53,70.10L73.16,70.42L72.78,70.72L72.37,71.00L71.94,71.26L71.49,71.49L71.02,71.70L70.54,71.88L70.05,72.03L69.54,72.16L69.02,72.27L68.49,72.35L67.95,72.40L67.40,72.43L66.84,72.43L66.28,72.41L65.72,72.37L65.16,72.30L64.59,72.21L64.03,72.10L63.46,71.97L62.91,71.82L62.35,71.65L61.80,71.47L61.26,71.27L60.73,71.05L60.20,70.82L59.69,70.58L59.18,70.33L58.69,70.07L58.20,69.81L57.73,69.54L57.28,69.26L56.83,68.98L56.40,68.70L55.99,68.42L55.58,68.14L55.19,67.87L54.81,67.60L54.45,67.34L54.10,67.08L53.76,66.84L53.44,66.61L53.13,66.38L52.82,66.17L52.53,65.98L52.25,65.80L51.98,65.64L51.71,65.49L51.45,65.36L51.20,65.25L50.95,65.16L50.71,65.09L50.47,65.04L50.24,65.01L50.00,65.00L49.76,65.01L49.53,65.04L49.29,65.09L49.05,65.16L48.80,65.25L48.55,65.36L48.29,65.49L48.02,65.64L47.75,65.80L47.47,65.98L47.18,66.17L46.87,66.38L46.56,66.61L46.24,66.84L45.90,67.08L45.55,67.34L45.19,67.60L44.81,67.87L44.42,68.14L44.01,68.42L43.60,68.70L43.17,68.98L42.72,69.26L42.27,69.54L41.80,69.81L41.31,70.07L40.82,70.33L40.31,70.58L39.80,70.82L39.27,71.05L38.74,71.27L38.20,71.47L37.65,71.65L37.09,71.82L36.54,71.97L35.97,72.10L35.41,72.21L34.84,72.30L34.28,72.37L33.72,72.41L33.16,72.43L32.60,72.43L32.05,72.40L31.51,72.35L30.98,72.27L30.46,72.16L29.95,72.03L29.46,71.88L28.98,71.70L28.51,71.49L28.06,71.26L27.63,71.00L27.22,70.72L26.84,70.42L26.47,70.10L26.13,69.75L25.81,69.38L25.51,68.99L25.24,68.59L25.00,68.16L24.78,67.72L24.60,67.27L24.43,66.79L24.30,66.31L24.19,65.81L24.12,65.31L24.07,64.79L24.05,64.27L24.05,63.74L24.09,63.20L24.15,62.67L24.23,62.12L24.35,61.58L24.48,61.04L24.64,60.50L24.83,59.97L25.04,59.43L25.26,58.91L25.51,58.39L25.77,57.87L26.06,57.37L26.36,56.87L26.67,56.38L26.99,55.91L27.33,55.44L27.68,54.99L28.03,54.55L28.39,54.12L28.76,53.71L29.13,53.31L29.50,52.92L29.87,52.54L30.24,52.18L30.61,51.83L30.97,51.50L31.32,51.18L31.67,50.86L32.01,50.57L32.34,50.28L32.66,50.00L32.96,49.73L33.25,49.47L33.53,49.22L33.79,48.98L34.03,48.74L34.25,48.51L34.46,48.28L34.65,48.06L34.82,47.84L34.97,47.62L35.10,47.40L35.20,47.18L35.29,46.95L35.36,46.73L35.41,46.50L35.44,46.26L35.45,46.02L35.44,45.77L35.41,45.51L35.36,45.24L35.30,44.97L35.22,44.68L35.13,44.38L35.02,44.07L34.90,43.74L34.76,43.41L34.62,43.06L34.47,42.69L34.30,42.31L34.14,41.92L33.96,41.51L33.79,41.09L33.61,40.65L33.43,40.20L33.25,39.73L33.07,39.25L32.89,38.76L32.72,38.26L32.56,37.74L32.41,37.22L32.26,36.68L32.12,36.13L32.00,35.58L31.89,35.02L31.80,34.45L31.72,33.88L31.65,33.30L31.61,32.73L31.58,32.15L31.57,31.57L31.58,31.00L31.62,30.42L31.67,29.86L31.75,29.30L31.85,28.74L31.97,28.20L32.11,27.67L32.28,27.15L32.47,26.65L32.68,26.16L32.91,25.68L33.17,25.23L33.44,24.80L33.74,24.38L34.06,23.99L34.40,23.62L34.76,23.28L35.13,22.96L35.53,22.67L35.94,22.40L36.36,22.16L36.80,21.95L37.26,21.77L37.72,21.62L38.20,21.50L38.68,21.41L39.17,21.35L39.67,21.32L40.18,21.32L40.69,21.35L41.20,21.40L41.72,21.49L42.23,21.61L42.75,21.75L43.26,21.92L43.77,22.12L44.27,22.34L44.77,22.59L45.26,22.86L45.75,23.15L46.22,23.47L46.69,23.80L47.15,24.15L47.59,24.52L48.03,24.91L48.45,25.30L48.85,25.71L49.25,26.13L49.63,26.56L50.00,27.00Z" stroke="#3fa8a4" stroke-width="2.5" fill="none" stroke-linejoin="round" mask="url(#m1)"/>
  <path d="M50.00,27.00L50.35,27.44L50.69,27.89L51.02,28.34L51.33,28.79L51.63,29.24L51.92,29.68L52.19,30.12L52.46,30.56L52.71,30.99L52.94,31.41L53.17,31.82L53.39,32.22L53.60,32.61L53.80,32.99L54.00,33.35L54.19,33.69L54.37,34.02L54.55,34.33L54.73,34.63L54.90,34.90L55.08,35.16L55.26,35.40L55.43,35.62L55.61,35.82L55.80,36.00L55.99,36.16L56.18,36.30L56.39,36.42L56.60,36.53L56.82,36.61L57.05,36.68L57.29,36.73L57.55,36.77L57.82,36.78L58.10,36.79L58.39,36.78L58.70,36.76L59.02,36.72L59.36,36.68L59.71,36.63L60.08,36.57L60.47,36.50L60.87,36.43L61.29,36.35L61.72,36.28L62.17,36.20L62.63,36.12L63.11,36.04L63.60,35.97L64.10,35.90L64.61,35.84L65.14,35.78L65.68,35.74L66.22,35.70L66.77,35.67L67.33,35.66L67.90,35.66L68.47,35.67L69.04,35.70L69.62,35.75L70.20,35.81L70.77,35.89L71.34,35.98L71.91,36.10L72.47,36.23L73.02,36.39L73.56,36.56L74.10,36.75L74.62,36.97L75.12,37.20L75.61,37.45L76.09,37.72L76.54,38.02L76.98,38.32L77.39,38.65L77.79,39.00L78.16,39.36L78.50,39.74L78.82,40.13L79.11,40.54L79.37,40.96L79.61,41.40L79.82,41.84L79.99,42.30L80.14,42.76L80.25,43.24L80.34,43.72L80.39,44.20L80.41,44.69L80.40,45.19L80.36,45.68L80.29,46.17L80.18,46.67L80.05,47.16L79.89,47.65L79.70,48.13L79.48,48.61L79.23,49.08L78.96,49.55L78.66,50.00L78.33,50.45L77.99,50.88L77.62,51.30L77.23,51.71L76.83,52.11L76.40,52.50L75.96,52.87L75.51,53.22L75.04,53.56L74.56,53.89L74.07,54.20L73.58,54.50L73.08,54.78L72.57,55.04L72.06,55.30L71.55,55.53L71.04,55.76L70.53,55.96L70.02,56.16L69.52,56.34L69.03,56.52L68.54,56.68L68.07,56.83L67.60,56.97L67.14,57.10L66.70,57.23L66.27,57.35L65.86,57.46L65.46,57.57L65.07,57.68L64.71,57.79L64.36,57.89L64.03,58.00L63.71,58.11L63.42,58.22L63.14,58.34L62.88,58.46L62.64,58.59L62.42,58.73L62.21,58.87L62.03,59.03L61.86,59.20L61.71,59.38L61.57,59.57L61.45,59.78L61.34,60.00L61.25,60.23L61.17,60.49L61.10,60.75L61.04,61.04L60.99,61.34L60.95,61.66L60.91,61.99L60.88,62.34L60.86,62.71L60.84,63.10L60.82,63.50L60.80,63.92L60.78,64.35L60.76,64.80L60.73,65.27L60.70,65.74L60.66,66.23L60.62,66.74L60.57,67.25L60.51,67.77L60.44,68.30L60.36,68.84L60.26,69.39L60.16,69.93L60.04,70.49L59.90,71.04L59.75,71.59L59.58,72.14L59.40,72.69L59.20,73.23L58.98,73.77L58.75,74.30L58.50,74.82L58.23,75.33L57.94,75.82L57.64,76.30L57.32,76.77L56.99,77.22L56.64,77.64L56.27,78.05L55.89,78.44L55.49,78.80L55.09,79.14L54.67,79.45L54.23,79.74L53.79,80.00L53.34,80.23L52.88,80.43L52.41,80.61L51.93,80.75L51.46,80.86L50.97,80.94L50.49,80.98L50.00,81.00L49.51,80.98L49.03,80.94L48.54,80.86L48.07,80.75L47.59,80.61L47.12,80.43L46.66,80.23L46.21,80.00L45.77,79.74L45.33,79.45L44.91,79.14L44.51,78.80L44.11,78.44L43.73,78.05L43.36,77.64L43.01,77.22L42.68,76.77L42.36,76.30L42.06,75.82L41.77,75.33L41.50,74.82L41.25,74.30L41.02,73.77L40.80,73.23L40.60,72.69L40.42,72.14L40.25,71.59L40.10,71.04L39.96,70.49L39.84,69.93L39.74,69.39L39.64,68.84L39.56,68.30L39.49,67.77L39.43,67.25L39.38,66.74L39.34,66.23L39.30,65.74L39.27,65.27L39.24,64.80L39.22,64.35L39.20,63.92L39.18,63.50L39.16,63.10L39.14,62.71L39.12,62.34L39.09,61.99L39.05,61.66L39.01,61.34L38.96,61.04L38.90,60.75L38.83,60.49L38.75,60.23L38.66,60.00L38.55,59.78L38.43,59.57L38.29,59.38L38.14,59.20L37.97,59.03L37.79,58.87L37.58,58.73L37.36,58.59L37.12,58.46L36.86,58.34L36.58,58.22L36.29,58.11L35.97,58.00L35.64,57.89L35.29,57.79L34.93,57.68L34.54,57.57L34.14,57.46L33.73,57.35L33.30,57.23L32.86,57.10L32.40,56.97L31.93,56.83L31.46,56.68L30.97,56.52L30.48,56.34L29.98,56.16L29.47,55.96L28.96,55.76L28.45,55.53L27.94,55.30L27.43,55.04L26.92,54.78L26.42,54.50L25.93,54.20L25.44,53.89L24.96,53.56L24.49,53.22L24.04,52.87L23.60,52.50L23.17,52.11L22.77,51.71L22.38,51.30L22.01,50.88L21.67,50.45L21.34,50.00L21.04,49.55L20.77,49.08L20.52,48.61L20.30,48.13L20.11,47.65L19.95,47.16L19.82,46.67L19.71,46.17L19.64,45.68L19.60,45.19L19.59,44.69L19.61,44.20L19.66,43.72L19.75,43.24L19.86,42.76L20.01,42.30L20.18,41.84L20.39,41.40L20.63,40.96L20.89,40.54L21.18,40.13L21.50,39.74L21.84,39.36L22.21,39.00L22.61,38.65L23.02,38.32L23.46,38.02L23.91,37.72L24.39,37.45L24.88,37.20L25.38,36.97L25.90,36.75L26.44,36.56L26.98,36.39L27.53,36.23L28.09,36.10L28.66,35.98L29.23,35.89L29.80,35.81L30.38,35.75L30.96,35.70L31.53,35.67L32.10,35.66L32.67,35.66L33.23,35.67L33.78,35.70L34.32,35.74L34.86,35.78L35.39,35.84L35.90,35.90L36.40,35.97L36.89,36.04L37.37,36.12L37.83,36.20L38.28,36.28L38.71,36.35L39.13,36.43L39.53,36.50L39.92,36.57L40.29,36.63L40.64,36.68L40.98,36.72L41.30,36.76L41.61,36.78L41.90,36.79L42.18,36.78L42.45,36.77L42.71,36.73L42.95,36.68L43.18,36.61L43.40,36.53L43.61,36.42L43.82,36.30L44.01,36.16L44.20,36.00L44.39,35.82L44.57,35.62L44.74,35.40L44.92,35.16L45.10,34.90L45.27,34.63L45.45,34.33L45.63,34.02L45.81,33.69L46.00,33.35L46.20,32.99L46.40,32.61L46.61,32.22L46.83,31.82L47.06,31.41L47.29,30.99L47.54,30.56L47.81,30.12L48.08,29.68L48.37,29.24L48.67,28.79L48.98,28.34L49.31,27.89L49.65,27.44L50.00,27.00Z" stroke="#3fa8a4" stroke-width="2.5" fill="none" stroke-linejoin="round" mask="url(#m2)"/>
</svg>